<?xml version="1.0" standalone="no"?>
<!DOCTYPE svg PUBLIC "-//W3C//DTD SVG 20010904//EN"
 "http://www.w3.org/TR/2001/REC-SVG-20010904/DTD/svg10.dtd">
<svg version="1.0" xmlns="http://www.w3.org/2000/svg"
 width="800.000000pt" height="600.000000pt" viewBox="0 0 800.000000 600.000000"
 preserveAspectRatio="xMidYMid meet">

<g transform="translate(0.000000,600.000000) scale(0.100000,-0.100000)"
fill="#000000" stroke="none">
<path d="M4970 5836 c-169 -31 -284 -71 -505 -176 -153 -73 -287 -120 -342
-120 -63 0 -140 25 -273 89 -159 76 -257 112 -395 144 -214 51 -327 62 -620
61 -291 0 -399 -12 -616 -69 -113 -30 -336 -137 -469 -226 -126 -83 -288 -245
-369 -369 -150 -228 -267 -531 -317 -825 -25 -141 -25 -469 -1 -622 120 -758
575 -1502 1373 -2244 690 -642 1459 -1237 1677 -1300 36 -10 84 8 187 69 413
247 1513 1183 1910 1627 447 499 737 971 873 1420 79 262 111 488 111 785 0
551 -146 946 -468 1265 -259 257 -587 410 -1018 476 -173 27 -623 36 -738 15z
m-1775 -371 c149 -25 271 -62 445 -137 91 -38 169 -74 173 -78 4 -4 -162 -155
-369 -336 -582 -507 -735 -644 -918 -823 -185 -182 -226 -235 -226 -292 0 -54
8 -67 53 -91 34 -17 53 -20 111 -15 96 6 172 38 248 104 107 92 137 99 158 40
22 -63 29 -344 30 -1084 l0 -753 48 0 c93 -1 2377 52 2380 55 2 1 14 389 28
861 14 473 27 873 30 891 l5 31 147 -94 c191 -122 262 -145 329 -104 25 15 36
32 49 75 27 94 16 113 -165 298 -133 137 -308 296 -571 522 -407 349 -706 629
-716 672 -24 93 209 199 566 260 151 26 577 26 703 0 854 -174 1282 -977 1037
-1947 -74 -293 -186 -545 -359 -808 -314 -475 -869 -1044 -1551 -1588 -377
-302 -730 -566 -743 -556 -7 5 -181 137 -387 293 -581 439 -804 625 -1108 924
-701 687 -1106 1342 -1196 1935 -75 491 44 989 315 1325 106 131 219 225 354
293 120 60 350 120 545 141 116 13 445 5 555 -14z m988 -587 c57 -38 103 -72
327 -236 41 -31 168 -129 281 -219 l206 -164 6 -346 c4 -191 7 -613 7 -940 l0
-593 -870 0 -870 0 0 953 0 953 249 213 c137 118 285 240 328 272 107 79 223
148 251 149 13 0 51 -19 85 -42z"/>
<path d="M3745 3743 c-37 -10 -66 -36 -87 -77 -18 -34 -22 -59 -22 -141 0
-174 42 -229 179 -230 82 0 128 21 160 75 17 30 20 52 20 150 0 126 -12 162
-67 203 -27 20 -139 33 -183 20z"/>
<path d="M4303 3741 c-90 -23 -116 -71 -116 -216 -1 -116 16 -165 71 -202 63
-42 253 -41 317 1 52 34 60 60 60 196 0 140 -11 171 -68 205 -35 21 -206 31
-264 16z"/>
<path d="M3747 3096 c-77 -28 -110 -81 -111 -171 0 -122 57 -179 179 -180 88
0 131 22 163 85 44 87 19 205 -52 249 -45 28 -128 36 -179 17z"/>
<path d="M4323 3100 c-104 -22 -136 -64 -136 -176 0 -87 20 -128 78 -158 57
-30 231 -31 289 -1 66 33 81 63 81 160 0 96 -15 127 -77 158 -42 21 -173 30
-235 17z"/>
</g>
  <defs>
    <linearGradient id="gradient" x1="16" x2="16" y1="32" y2="24" gradientUnits="userSpaceOnUse">
      <stop stop-color="#000"/>
      <stop offset="1" stop-color="#000" stop-opacity="0"/>
    </linearGradient>
  </defs>
	<style>
    @media (prefers-color-scheme:dark){:root{filter:invert(100%)}}
  </style>
</svg>
