<?xml version="1.0" standalone="no"?>
<!DOCTYPE svg PUBLIC "-//W3C//DTD SVG 20010904//EN"
 "http://www.w3.org/TR/2001/REC-SVG-20010904/DTD/svg10.dtd">
<svg version="1.0" xmlns="http://www.w3.org/2000/svg"
 width="613.000000pt" height="329.000000pt" viewBox="0 0 613.000000 329.000000"
 preserveAspectRatio="xMidYMid meet">

<g transform="translate(0.000000,329.000000) scale(0.100000,-0.100000)"
fill="#000000" stroke="none">
<path d="M2546 2699 c-59 -14 -153 -68 -188 -108 -44 -50 -85 -145 -98 -223
-37 -237 123 -502 466 -769 143 -112 198 -149 222 -149 22 0 276 189 373 278
132 121 250 294 290 425 17 55 21 87 17 165 -3 86 -7 106 -39 172 -49 103 -78
133 -167 177 -74 37 -79 38 -186 38 -119 0 -185 -15 -255 -59 l-37 -24 -40 24
c-92 57 -246 79 -358 53z m272 -98 c28 -13 52 -27 52 -31 0 -5 -74 -73 -165
-152 -141 -121 -165 -147 -163 -168 5 -38 42 -38 89 0 l39 31 0 -200 c0 -168
2 -202 16 -215 13 -14 51 -16 259 -16 208 0 246 2 259 16 13 13 16 47 16 211
l0 195 35 -31 c52 -45 95 -39 95 13 0 7 -76 80 -170 161 -135 118 -168 151
-159 162 7 7 43 23 81 34 134 41 284 13 360 -68 41 -43 80 -131 87 -193 25
-222 -137 -465 -485 -726 -135 -102 -102 -106 -283 34 -138 107 -279 251 -350
357 -85 127 -118 272 -86 381 47 164 152 238 330 231 66 -3 104 -9 143 -26z
m251 -196 l70 -60 0 -207 1 -208 -195 0 -195 0 0 213 1 212 92 81 92 82 32
-27 c17 -14 63 -53 102 -86z"/>
<path d="M2830 2195 l0 -45 45 0 45 0 0 45 0 45 -45 0 -45 0 0 -45z"/>
<path d="M2970 2195 l0 -45 45 0 45 0 0 45 0 45 -45 0 -45 0 0 -45z"/>
<path d="M2830 2055 l0 -45 45 0 45 0 0 45 0 45 -45 0 -45 0 0 -45z"/>
<path d="M2970 2055 l0 -45 45 0 45 0 0 45 0 45 -45 0 -45 0 0 -45z"/>
<path d="M1550 955 c0 -34 1 -35 40 -35 39 0 40 1 40 35 0 34 -1 35 -40 35
-39 0 -40 -1 -40 -35z"/>
<path d="M2860 810 l0 -180 40 0 40 0 0 180 0 180 -40 0 -40 0 0 -180z"/>
<path d="M3820 930 c0 -57 -1 -60 -19 -50 -33 17 -96 12 -125 -11 -54 -42 -69
-107 -42 -174 26 -61 111 -94 161 -61 14 9 25 12 25 6 0 -5 18 -10 40 -10 l40
0 0 180 0 180 -40 0 -40 0 0 -60z m-9 -132 c18 -34 7 -81 -23 -98 -25 -13 -31
-13 -55 0 -32 18 -43 71 -22 97 30 35 82 36 100 1z"/>
<path d="M1370 920 c0 -23 -4 -30 -20 -30 -16 0 -20 -7 -20 -30 0 -23 4 -30
20 -30 18 0 20 -7 20 -76 0 -41 5 -84 11 -95 14 -27 56 -42 96 -34 28 5 33 10
33 35 0 24 -5 29 -27 32 -27 3 -28 5 -31 71 l-3 67 31 0 c27 0 30 3 30 30 0
27 -3 30 -30 30 -27 0 -30 3 -30 30 0 28 -2 30 -40 30 -38 0 -40 -2 -40 -30z"/>
<path d="M2370 920 c0 -23 -4 -30 -20 -30 -15 0 -20 -7 -20 -29 0 -20 6 -30
20 -34 18 -5 20 -14 20 -82 0 -67 3 -79 25 -100 24 -25 50 -30 93 -19 17 5 22
14 22 38 0 28 -3 32 -27 31 -28 0 -28 1 -31 68 -3 66 -3 67 23 67 21 0 25 5
25 30 0 25 -4 30 -25 30 -21 0 -25 5 -25 30 0 28 -2 30 -40 30 -38 0 -40 -2
-40 -30z"/>
<path d="M776 869 c-58 -46 -72 -133 -31 -195 22 -34 80 -58 119 -49 17 3 55
5 84 5 l52 -1 0 130 0 131 -40 0 c-22 0 -40 -5 -40 -10 0 -7 -6 -7 -19 0 -33
17 -96 12 -125 -11z m132 -62 c6 -5 12 -27 12 -48 0 -61 -59 -90 -100 -49 -60
60 21 149 88 97z"/>
<path d="M1089 851 c-35 -34 -39 -44 -39 -87 0 -67 26 -107 84 -129 56 -22
108 -14 144 22 l25 25 -32 14 c-24 10 -37 11 -56 2 -19 -8 -31 -8 -50 0 -79
36 -34 148 48 120 19 -7 37 -6 59 3 l31 13 -32 28 c-26 24 -40 28 -87 28 -52
0 -59 -3 -95 -39z"/>
<path d="M1550 760 l0 -130 40 0 40 0 0 130 0 130 -40 0 -40 0 0 -130z"/>
<path d="M1672 881 c2 -4 27 -63 57 -130 l54 -122 39 3 38 3 50 109 c70 153
69 146 22 146 l-38 0 -33 -80 c-18 -44 -37 -78 -41 -75 -4 2 -22 38 -40 80
l-33 75 -39 0 c-22 0 -38 -4 -36 -9z"/>
<path d="M2069 873 c-86 -53 -76 -200 16 -239 44 -18 75 -18 103 2 12 8 22 10
22 5 0 -6 18 -11 40 -11 l40 0 0 130 0 130 -40 0 c-22 0 -40 -5 -40 -10 0 -7
-6 -7 -19 0 -29 15 -92 12 -122 -7z m125 -69 c22 -22 20 -70 -4 -94 -41 -41
-100 -12 -100 49 0 20 5 42 12 49 17 17 74 15 92 -4z"/>
<path d="M2609 875 c-78 -42 -88 -161 -18 -219 48 -41 137 -47 185 -12 18 14
18 15 0 35 -15 17 -26 19 -61 14 -42 -5 -85 8 -85 27 0 6 39 10 90 10 l90 0 0
35 c0 48 -24 91 -60 110 -36 19 -107 19 -141 0z m102 -55 c34 -19 21 -30 -33
-30 l-53 1 24 19 c27 23 35 24 62 10z"/>
<path d="M3031 865 c-60 -51 -65 -149 -10 -205 32 -32 84 -46 121 -34 12 5 44
7 71 5 l47 -3 0 131 0 131 -40 0 c-24 0 -40 -5 -40 -12 0 -9 -3 -9 -12 0 -7 7
-33 12 -59 12 -36 0 -55 -6 -78 -25z m146 -76 c21 -41 -10 -99 -54 -99 -52 0
-84 78 -45 112 37 33 78 28 99 -13z"/>
<path d="M3320 760 l0 -130 35 0 35 0 0 65 c0 75 13 108 47 124 30 14 29 14
47 -5 12 -12 16 -36 16 -100 l0 -84 40 0 40 0 0 85 c0 93 -16 147 -48 164 -33
18 -87 13 -116 -10 l-26 -20 0 20 c0 17 -6 21 -35 21 l-35 0 0 -130z"/>
<path d="M4134 870 c-57 -37 -76 -135 -37 -188 46 -63 148 -79 200 -30 29 27
29 32 -1 46 -18 8 -32 8 -55 0 -61 -24 -112 34 -80 90 18 33 50 44 80 28 19
-10 29 -10 52 1 34 17 34 26 1 52 -36 28 -117 28 -160 1z"/>
<path d="M4427 871 c-107 -70 -72 -227 56 -248 109 -17 192 100 142 198 -34
64 -137 91 -198 50z m117 -67 c24 -24 20 -80 -6 -98 -30 -21 -54 -20 -78 4
-24 24 -26 67 -3 92 20 22 66 24 87 2z"/>
<path d="M4690 760 l0 -130 40 0 40 0 0 84 c0 92 9 109 57 109 41 0 53 -27 53
-115 l0 -78 40 0 40 0 0 79 c0 74 2 81 26 100 33 26 39 26 64 1 17 -17 20 -33
20 -100 l0 -80 40 0 40 0 0 85 c0 93 -16 147 -48 164 -37 20 -98 13 -129 -13
l-28 -24 -28 24 c-34 28 -91 32 -125 8 -20 -14 -22 -14 -22 0 0 12 -10 16 -40
16 l-40 0 0 -130z"/>
<path d="M3957 703 c-15 -14 -7 -63 12 -73 38 -20 76 16 60 58 -6 16 -16 22
-37 22 -16 0 -32 -3 -35 -7z"/>
</g>
</svg>
